<?xml version="1.0" encoding="utf-8"?>
<!-- Generator: Adobe Illustrator 21.0.0, SVG Export Plug-In . SVG Version: 6.00 Build 0)  -->
<svg version="1.1" id="图层_1" xmlns="http://www.w3.org/2000/svg" xmlns:xlink="http://www.w3.org/1999/xlink" x="0px" y="0px"
	 viewBox="0 0 62.9 62.9" style="enable-background:new 0 0 62.9 62.9;" xml:space="preserve">
<style type="text/css">
	.st0{clip-path:url(#SVGID_2_);fill:none;stroke:#878787;stroke-width:2;stroke-miterlimit:10;}
	
		.st1{clip-path:url(#SVGID_2_);fill:none;stroke:#878787;stroke-width:2;stroke-linecap:round;stroke-linejoin:round;stroke-miterlimit:10;}
	.st2{clip-path:url(#SVGID_2_);fill:#878787;}
</style>
<g>
	<defs>
		<rect id="SVGID_1_" y="0" width="62.9" height="62.9"/>
	</defs>
	<clipPath id="SVGID_2_">
		<use xlink:href="#SVGID_1_"  style="overflow:visible;"/>
	</clipPath>
	<circle class="st0" cx="31.5" cy="23.5" r="22.5"/>
	<path class="st1" d="M43.5,42.5C51.4,46,58,53,61.9,61.9"/>
	<path class="st1" d="M1,61.9C4.9,53,11.5,46,19.4,42.5"/>
	<path class="st2" d="M23.7,18.2c0-1,0.3-2,1-3c0.6-1,1.6-1.9,2.8-2.5c1.2-0.7,2.6-1,4.3-1c1.5,0,2.8,0.3,4,0.8
		c1.2,0.6,2,1.3,2.7,2.3c0.6,1,0.9,2,0.9,3.1c0,0.9-0.2,1.7-0.5,2.3c-0.4,0.7-0.8,1.2-1.3,1.7c-0.5,0.5-1.4,1.3-2.7,2.4
		c-0.4,0.3-0.6,0.6-0.9,0.9c-0.2,0.2-0.4,0.5-0.5,0.7c-0.1,0.2-0.2,0.4-0.2,0.6s-0.1,0.6-0.3,1.1c-0.2,1.1-0.8,1.6-1.9,1.6
		c-0.5,0-1-0.2-1.4-0.5c-0.4-0.4-0.6-0.9-0.6-1.6c0-0.9,0.1-1.6,0.4-2.3c0.3-0.6,0.6-1.2,1.1-1.7c0.4-0.5,1.1-1.1,1.8-1.7
		c0.7-0.6,1.1-1,1.4-1.3c0.3-0.3,0.5-0.6,0.8-1c0.2-0.4,0.3-0.8,0.3-1.2c0-0.8-0.3-1.5-0.9-2.1c-0.6-0.6-1.4-0.9-2.4-0.9
		c-1.1,0-2,0.3-2.5,0.9c-0.5,0.6-1,1.4-1.4,2.6c-0.4,1.2-1,1.8-2,1.8c-0.6,0-1.1-0.2-1.5-0.6C23.9,19.1,23.7,18.6,23.7,18.2
		 M31.3,35.3c-0.6,0-1.2-0.2-1.7-0.6c-0.5-0.4-0.7-1-0.7-1.7c0-0.7,0.2-1.2,0.7-1.7c0.5-0.4,1-0.7,1.7-0.7c0.7,0,1.2,0.2,1.7,0.7
		c0.4,0.4,0.7,1,0.7,1.7c0,0.7-0.2,1.3-0.7,1.7C32.5,35.1,31.9,35.3,31.3,35.3"/>
</g>
</svg>
