<?xml version="1.0" encoding="utf-8"?>
<!-- Generator: Adobe Illustrator 21.0.0, SVG Export Plug-In . SVG Version: 6.00 Build 0)  -->
<svg version="1.1" id="图层_1" xmlns="http://www.w3.org/2000/svg" xmlns:xlink="http://www.w3.org/1999/xlink" x="0px" y="0px"
	 width="42px" height="40.3px" viewBox="0 0 42 40.3" style="enable-background:new 0 0 42 40.3;" xml:space="preserve">
<style type="text/css">
	.st0{fill:url(#SVGID_1_);}
	.st1{enable-background:new    ;}
	.st2{fill:#F7931E;}
	.st3{fill:#FFD02A;}
</style>
<g>
	<g>
		
			<linearGradient id="SVGID_1_" gradientUnits="userSpaceOnUse" x1="0" y1="16.2375" x2="42" y2="16.2375" gradientTransform="matrix(1 0 0 -1 0 40)">
			<stop  offset="0" style="stop-color:#FFB400"/>
			<stop  offset="0.2634" style="stop-color:#FFDD00"/>
			<stop  offset="0.5037" style="stop-color:#FFFF00"/>
			<stop  offset="0.669" style="stop-color:#FFE900"/>
			<stop  offset="1" style="stop-color:#FFB400"/>
		</linearGradient>
		<path class="st0" d="M40.7,10.5c-0.7,0-1.3,0.6-1.3,1.3s0.6,1.3,1.3,1.3s1.3-0.6,1.3-1.3S41.4,10.5,40.7,10.5 M2.6,11.5
			c0-0.7-0.6-1.3-1.3-1.3S0,10.8,0,11.5s0.6,1.3,1.3,1.3S2.6,12.3,2.6,11.5 M39.9,15.9l-7.1,14.8c-0.5,0.9,0.2,2,1.3,2
			c0.5,0,1,0.3,1.1,0.8c0.2,0.7-0.4,1.3-1,1.3H7.5c-0.6,0-1.1-0.4-1.1-1c-0.1-0.6,0.4-1.2,1.1-1.2h0.3c1,0,1.7-1.1,1.3-2L2.2,16.5
			C1.9,16,2.1,15.3,2.6,15s1.3-0.1,1.5,0.4c0,0,0.7,1.3,0.8,1.4C5.7,18.5,7,19,9.2,18.5c4.5-0.9,10.1-5.9,10.7-10.3
			c0-1.3,2.2-1.3,2.2,0c0.6,4.4,6.2,9.4,10.7,10.3c2.2,0.4,3.6-0.1,4.3-1.7c0-0.1,1-2,1-2c0.3-0.5,0.9-0.8,1.4-0.5
			C39.9,14.7,40.2,15.3,39.9,15.9 M35.2,39.2c0,0.6-0.5,1.1-1.1,1.1H7.4c-0.6,0-1.1-0.5-1.1-1.1s0.5-1.1,1.1-1.1h26.7
			C34.7,38.1,35.2,38.6,35.2,39.2"/>
	</g>
</g>
<g>
	<g class="st1">
		<path class="st2" d="M14.2,29.8l-3.1-8.7H13l2.2,6.4l2.1-6.4h1.9l-3.1,8.7H14.2z"/>
		<path class="st2" d="M20.1,29.8v-8.7h1.8v8.7H20.1z"/>
		<path class="st2" d="M23.5,29.8v-8.7h2.8c1.1,0,1.8,0,2.1,0.1c0.5,0.1,0.9,0.4,1.2,0.8s0.5,1,0.5,1.7c0,0.5-0.1,1-0.3,1.3
			c-0.2,0.4-0.4,0.6-0.7,0.9s-0.6,0.3-0.9,0.4c-0.4,0.1-1,0.1-1.8,0.1h-1.1v3.3H23.5z M25.2,22.6V25h1c0.7,0,1.2,0,1.4-0.1
			c0.2-0.1,0.4-0.2,0.5-0.4c0.1-0.2,0.2-0.4,0.2-0.7c0-0.3-0.1-0.6-0.3-0.8c-0.2-0.2-0.4-0.3-0.7-0.4c-0.2,0-0.6-0.1-1.3-0.1H25.2z"
			/>
	</g>
</g>
<path class="st3" d="M18.4,2.6c0,1.5,1.2,2.6,2.6,2.6c1.5,0,2.6-1.2,2.6-2.6S22.5,0,21,0S18.4,1.2,18.4,2.6"/>
</svg>
