<?xml version="1.0" encoding="utf-8"?>
<!-- Generator: Adobe Illustrator 19.0.0, SVG Export Plug-In . SVG Version: 6.00 Build 0)  -->
<svg version="1.1" id="图层_1" xmlns="http://www.w3.org/2000/svg" xmlns:xlink="http://www.w3.org/1999/xlink" x="0px" y="0px"
	 width="40px" height="40px" viewBox="0 0 40 40" style="enable-background:new 0 0 40 40;" xml:space="preserve">
<style type="text/css">
	.st0{clip-path:url(#SVGID_2_);fill:#06BB14;}
	.st1{clip-path:url(#SVGID_2_);fill:#FFFFFF;}
</style>
<g>
	<defs>
		<rect id="SVGID_1_" width="40" height="40"/>
	</defs>
	<clipPath id="SVGID_2_">
		<use xlink:href="#SVGID_1_"  style="overflow:visible;"/>
	</clipPath>
	<path class="st0" d="M32,40H8c-4.4,0-8-3.6-8-8V8c0-4.4,3.6-8,8-8h24c4.4,0,8,3.6,8,8v24C40,36.4,36.4,40,32,40"/>
	<path class="st1" d="M15.8,8.5c-5.6,0-10.2,3.7-10.2,8.5c0,2.7,1.5,5,4.1,6.7l-1,3l3.6-1.7c1.3,0.2,2.3,0.5,3.6,0.5
		c0.3,0,0.6,0,0.9,0c-0.2-0.7-0.3-1.4-0.3-2.1c0-4.4,3.8-7.9,8.7-7.9c0.3,0,0.7,0,1,0.1C25.2,11.5,20.8,8.5,15.8,8.5 M12.3,15.6
		c-0.8,0-1.5-0.7-1.5-1.5c0-0.8,0.7-1.5,1.5-1.5c0.8,0,1.5,0.7,1.5,1.5C13.8,14.9,13.1,15.6,12.3,15.6 M19.4,15.6
		c-0.8,0-1.5-0.7-1.5-1.5c0-0.8,0.7-1.5,1.5-1.5c0.5,0,1,0.3,1.3,0.7c0,0.1,0.1,0.1,0.1,0.2c0,0,0,0.1,0.1,0.1c0,0.1,0,0.1,0,0.2
		c0,0.1,0,0.2,0,0.3C20.9,14.9,20.2,15.6,19.4,15.6 M34.4,23.2c0-4-4.1-7.2-8.7-7.2c-4.8,0-8.7,3.2-8.7,7.2c0,4,3.8,7.2,8.7,7.2
		c1,0,2-0.3,3.1-0.5l2.8,1.5L30.8,29C32.9,27.5,34.4,25.5,34.4,23.2 M23,22.2c-0.7,0-1.2-0.5-1.2-1.2c0-0.7,0.5-1.2,1.2-1.2
		c0.7,0,1.2,0.5,1.2,1.2C24.3,21.7,23.7,22.2,23,22.2 M28.6,22.2c-0.7,0-1.2-0.5-1.2-1.2c0-0.7,0.5-1.2,1.2-1.2
		c0.7,0,1.2,0.5,1.2,1.2C29.8,21.7,29.3,22.2,28.6,22.2"/>
</g>
</svg>
