<?xml version="1.0" encoding="utf-8"?>
<!-- Generator: Adobe Illustrator 19.0.0, SVG Export Plug-In . SVG Version: 6.00 Build 0)  -->
<svg version="1.1" id="图层_1" xmlns="http://www.w3.org/2000/svg" xmlns:xlink="http://www.w3.org/1999/xlink" x="0px" y="0px"
	 width="40px" height="40px" viewBox="0 0 40 40" style="enable-background:new 0 0 40 40;" xml:space="preserve">
<style type="text/css">
	.st0{clip-path:url(#SVGID_2_);fill:#1296DB;}
	.st1{clip-path:url(#SVGID_2_);fill:#FFFFFF;}
</style>
<g>
	<defs>
		<rect id="SVGID_1_" width="40" height="40"/>
	</defs>
	<clipPath id="SVGID_2_">
		<use xlink:href="#SVGID_1_"  style="overflow:visible;"/>
	</clipPath>
	<path class="st0" d="M40,8v24c0,0.8-0.1,1.6-0.4,2.4c-1,3.3-4,5.6-7.6,5.6H8c-4.4,0-8-3.6-8-8V8c0-4.4,3.6-8,8-8h24
		C36.4,0,40,3.6,40,8"/>
	<path class="st1" d="M27.5,23.9c2.7-4.7,3.6-9.3,3.6-9.3h-8.9v-2.3h10.4V9.9H22.2V4.8h-4.7v5.1H8v2.4h9.5v2.5h-8v1.5h16.3
		c0,0.2-1.3,4.5-2.3,6.4C11.4,18,8.2,20.4,7,21.2c-8,5.7-1.2,11.9,0.8,12.7c8.5,1.9,14-1.7,17.8-6.2c0.1,0.1,9.8,4.7,14,6.7
		c0.2-0.7,0.4-1.5,0.4-2.4v-4.2C37,27.1,31.6,25.3,27.5,23.9 M21.3,26C15.4,33.6,8.2,31.3,7,30.7c-2.8-0.8-3.8-5.9-0.2-7.6
		c5.9-1.9,11.2,0.2,15,2.1C21.4,25.8,21.3,26,21.3,26"/>
</g>
</svg>
