<svg id="Layer_1" data-name="Layer 1" xmlns="http://www.w3.org/2000/svg" width="22" height="22" viewBox="0 0 22 22">
    <defs>
        <style>
            .cls-1 {
                fill: #999;
            }

            .cls-2 {
                fill: #fff;
            }
        </style>
    </defs>
    <title>zhifubao</title>
    <path class="cls-1"
        d="M22,4.4V17.6A4.41,4.41,0,0,1,17.6,22H4.4A4.4,4.4,0,0,1,0,17.6V4.4A4.4,4.4,0,0,1,4.4,0H17.6A4.4,4.4,0,0,1,22,4.4Z" />
    <path class="cls-2"
        d="M15.13,13.14a20,20,0,0,0,2-5.11h-4.9V6.77h5.73V5.43H12.21V2.61H9.61V5.43H4.4V6.77H9.61V8.14H5.23V9h9a25.51,25.51,0,0,1-1.25,3.54c-6.67-2.6-8.43-1.28-9.07-.84-4.38,3.13-.68,6.55.42,7a9.28,9.28,0,0,0,9.8-3.44c.08.08,5.4,2.59,7.71,3.67a4.35,4.35,0,0,0,.2-1.3V15.28C20.34,14.91,17.38,13.92,15.13,13.14ZM11.7,14.29c-3.23,4.17-7.19,2.92-7.82,2.6a2.3,2.3,0,0,1-.11-4.17c3.23-1,6.15.11,8.24,1.15A3.6,3.6,0,0,1,11.7,14.29Z" />
</svg>